<svg xmlns="http://www.w3.org/2000/svg" width="448" height="512">
  <circle cx="338" cy="346" r="20" fill="#7fbb00"/>
  <path fill="#7fbb00" d="M428 362c11.046 0 20-8.954 20-20v-74c0-44.112-35.888-80-80-80h-24.037v-70.534C343.963 52.695 290.131 0 223.963 0s-120 52.695-120 117.466V188H80c-44.112 0-80 35.888-80 80v164c0 44.112 35.888 80 80 80h288c44.112 0 80-35.888 80-80 0-11.046-8.954-20-20-20s-20 8.954-20 20c0 22.056-17.944 40-40 40H80c-22.056 0-40-17.944-40-40V268c0-22.056 17.944-40 40-40h288c22.056 0 40 17.944 40 40v74c0 11.046 8.954 20 20 20zM303.963 188h-160v-70.534c0-42.715 35.888-77.466 80-77.466s80 34.751 80 77.466z"/>
  <circle cx="187" cy="346" r="20" fill="#7fbb00"/>
  <circle cx="112" cy="346" r="20" fill="#7fbb00"/>
  <circle cx="262" cy="346" r="20" fill="#7fbb00"/>
</svg>
