<svg xmlns="http://www.w3.org/2000/svg" width="512" height="512">
  <path fill="#FF1900" d="M329.068 0H182.932v43.146H58.712v106.52h17.932L107.027 512h297.945l30.383-362.334h17.932V43.146H329.068V0zM212.932 30h86.137v13.146h-86.137V30zm164.451 452H134.617l-27.868-332.334h298.502L377.383 482zm45.905-408.854v46.52H88.712v-46.52h334.576z"/>
  <path fill="#FF1900" d="M243.352 292.901l23.304-60.249-60.25-23.303-10.822 27.98 10.628 4.11c-22.412 15.778-36.861 41.841-36.861 70.909 0 33.339 18.609 63.167 48.567 77.845l13.199-26.94c-19.595-9.601-31.767-29.106-31.767-50.905 0-17.866 8.337-34.002 21.503-44.44l-5.481 14.171 27.98 10.822zM342.648 312.552c0-33.339-18.609-63.168-48.567-77.846l-13.199 26.94c19.595 9.601 31.767 29.106 31.767 50.906 0 17.865-8.337 34.001-21.503 44.44l5.481-14.171-27.98-10.824-23.304 60.25 60.25 23.303 10.822-27.98-10.628-4.11c22.413-15.778 36.861-41.841 36.861-70.908z"/>
</svg>
