<svg xmlns="http://www.w3.org/2000/svg" viewBox="0 0 410.00399 346.21901">
  <path fill="#66d709" d="M208.593.000002l-15.521 38.803h62.084v-38.803z"/>
  <path fill="#ebeaea" d="M162.03 0h46.563v38.801998H162.03z"/>
  <path fill="#4fad01" d="M339.666 346.219002v-326.219h-59.073l-87.171 303.46 15.171 22.759z"/>
  <path fill="#6fdb87" d="M208.593 326.219002l-19.53-249.5 130.6 4v245.5z"/>
  <path fill="#5fc575" d="M208.593 80.719002l-23.34-40.72h134.41v40.72z"/>
  <path fill="#38ff00" d="M78.593 346.219002h130v-22.759l-72-303.46h-58z"/>
  <path fill="#ebeaea" d="M97.523 326.219002v-245.5l111.07-4v249.5z"/>
  <path fill="#6fdb87" d="M97.523 39.999001h111.07v40.720001H97.523z"/>
  <path fill="#38ff00" d="M208.593 60.000002h72v-40h-72l-15.173 20z"/>
  <path fill="#66d709" d="M136.593 20h72v40h-72z"/>
  <path fill="#6fdb87" d="M208.593 259.219002l9.5-10-9.5-10H117.52v20z"/>
  <path fill="#5fc575" d="M208.593 239.219002h51.073002v20H208.593zM279.666 239.219002h20v20h-20z"/>
  <path fill="#6fdb87" d="M208.593 302.719002l9.5-10-9.5-10H117.52v20z"/>
  <path fill="#5fc575" d="M208.593 282.719002h51.073002v20H208.593zM279.666 282.719002h20v20h-20z"/>
  <path fill="#6fdb87" d="M208.593 104.219002l9.5 10-9.5 10H117.52v-20z"/>
  <path fill="#5fc575" d="M208.593 104.219002h51.073002v20H208.593zM279.666 104.219002h20v20h-20z"/>
  <path fill="#38ff00" d="M78.593 163.052002v53.667l-78.593-35z"/>
  <path fill="#ebeaea" d="M78.593 146.719002v35H0z"/>
  <path fill="#75a902" d="M78.593 181.719002l251.411-18.667-10 53.666-241.411.001z"/>
  <path fill="#7fbb00" d="M78.593 146.719002h241.411l10 35H78.593z"/>
  <path fill="#ebeaea" d="M208.593 171.193002h121.411v20H208.593z"/>
  <path fill="#38ff00" d="M360.004 172.245002v18.948l50-.004v-18.94z"/>
  <path fill="#75a902" d="M330.233 163.052002l50 18.667v35h-40z"/>
  <path fill="#7fbb00" d="M340.233 146.719002h40v35h-50z"/>
  <path fill="#38ff00" d="M325.004 172.385002l15 9.334v34.999h-20v-34.999z"/>
  <path fill="#ebeaea" d="M320.00401 146.721002h20v35h-20z"/>
</svg>
